<svg xmlns="http://www.w3.org/2000/svg" width="198" height="85" fill="none" viewBox="0 0 198 85">
  <path fill="#2F6BFF" d="M53.262 66.973v16.816H37.559V66.973H0V54.609L34.863 1.23h18.399v53.497h11.015v12.246H53.262ZM13.418 54.727h24.14V27.715c0-2.11.06-4.395.176-6.856.157-2.46.274-4.043.352-4.746-.508 1.094-1.23 2.442-2.168 4.043a134.072 134.072 0 0 1-3.34 5.45l-19.16 29.12ZM126.797 42.48c0 13.945-2.402 24.511-7.207 31.699-4.766 7.187-11.934 10.78-21.504 10.78-9.453 0-16.543-3.534-21.27-10.604-4.726-7.11-7.09-17.735-7.09-31.875 0-14.493 2.247-25.196 6.739-32.11C80.996 3.457 88.359 0 98.555 0 108.32 0 115.469 3.535 120 10.605c4.531 7.07 6.797 17.696 6.797 31.875Zm-16.524 0c0-7.422-.332-13.282-.996-17.579-.664-4.336-1.855-7.422-3.574-9.258-1.719-1.835-4.141-2.753-7.266-2.753-3.32 0-5.878.937-7.675 2.812-1.758 1.836-2.969 4.922-3.633 9.258-.625 4.297-.938 10.137-.938 17.52 0 7.382.332 13.242.996 17.578.704 4.297 1.915 7.363 3.633 9.199 1.758 1.836 4.22 2.754 7.383 2.754 4.688 0 7.871-2.266 9.551-6.797 1.68-4.531 2.519-12.11 2.519-22.735Zm76.582 24.492v16.816h-15.703V66.973h-37.558V54.609L168.457 1.23h18.398v53.497h11.016v12.246h-11.016Zm-39.843-12.246h24.14V27.715c0-2.11.059-4.395.176-6.856.156-2.46.274-4.043.352-4.746-.508 1.094-1.231 2.442-2.168 4.043a134.769 134.769 0 0 1-3.34 5.45l-19.16 29.12Z"/>
</svg>
