<svg width="14" height="11" viewBox="0 0 14 11" fill="none" xmlns="http://www.w3.org/2000/svg">
<path d="M12 7.63301C12 7.88432 11.8946 8.12534 11.7071 8.30304C11.5196 8.48075 11.2652 8.58058 11 8.58058H4.414C4.14881 8.58063 3.89449 8.6805 3.707 8.85822L2.606 9.9015C2.55635 9.94853 2.4931 9.98056 2.42424 9.99354C2.35539 10.0065 2.28402 9.99985 2.21915 9.9744C2.15429 9.94894 2.09885 9.90583 2.05984 9.85052C2.02083 9.79521 2.00001 9.73018 2 9.66365V1.94757C2 1.69626 2.10536 1.45524 2.29289 1.27754C2.48043 1.09983 2.73478 1 3 1H11C11.2652 1 11.5196 1.09983 11.7071 1.27754C11.8946 1.45524 12 1.69626 12 1.94757V7.63301Z" stroke="#9D9D9D" stroke-width="1.16667" stroke-linecap="round" stroke-linejoin="round"/>
</svg>
