<svg xmlns="http://www.w3.org/2000/svg" width="200" height="200" fill="none" viewBox="0 0 200 200">
  <path fill="#E8EFFF" d="M100 180c44.183 0 80-35.817 80-80s-35.817-80-80-80-80 35.817-80 80 35.817 80 80 80Z"/>
  <path fill="#2F6BFF" d="M70 90a5 5 0 0 1 5-5h10a5 5 0 0 1 5 5v5a5 5 0 0 1-5 5H75a5 5 0 0 1-5-5v-5Zm40 0a5 5 0 0 1 5-5h10a5 5 0 0 1 5 5v5a5 5 0 0 1-5 5h-10a5 5 0 0 1-5-5v-5Z"/>
  <path fill="#9D9D9D" d="M70 120a8 8 0 0 1 8-8h44a8 8 0 0 1 8 8v5a8 8 0 0 1-8 8H78a8 8 0 0 1-8-8v-5Z"/>
</svg>
