<svg width="88" height="88" viewBox="0 0 88 88" fill="none" xmlns="http://www.w3.org/2000/svg">
<g filter="url(#filter0_dd_145_847)">
<path d="M12 34C12 16.3269 26.3269 2 44 2C61.6731 2 76 16.3269 76 34C76 51.6731 61.6731 66 44 66C26.3269 66 12 51.6731 12 34Z" fill="url(#paint0_linear_145_847)" shape-rendering="crispEdges"/>
<path d="M41.812 23.16H45.172C45.172 25.128 44.764 26.888 43.948 28.44C43.132 29.976 41.956 31.28 40.42 32.352C38.884 33.408 37.004 34.224 34.78 34.8L33.58 32.28C35.42 31.832 36.948 31.232 38.164 30.48C39.38 29.728 40.292 28.864 40.9 27.888C41.508 26.896 41.812 25.856 41.812 24.768V23.16ZM34.852 23.16H43.876V25.68H34.852V23.16ZM48.748 21.888H51.94V34.272H48.748V21.888ZM37.228 35.232H51.94V43.896H37.228V35.232ZM48.796 37.728H40.372V41.376H48.796V37.728Z" fill="white"/>
</g>
<defs>
<filter id="filter0_dd_145_847" x="0" y="0" width="88" height="88" filterUnits="userSpaceOnUse" color-interpolation-filters="sRGB">
<feFlood flood-opacity="0" result="BackgroundImageFix"/>
<feColorMatrix in="SourceAlpha" type="matrix" values="0 0 0 0 0 0 0 0 0 0 0 0 0 0 0 0 0 0 127 0" result="hardAlpha"/>
<feMorphology radius="4" operator="erode" in="SourceAlpha" result="effect1_dropShadow_145_847"/>
<feOffset dy="4"/>
<feGaussianBlur stdDeviation="3"/>
<feComposite in2="hardAlpha" operator="out"/>
<feColorMatrix type="matrix" values="0 0 0 0 0.169333 0 0 0 0 0.498049 0 0 0 0 1 0 0 0 0.3 0"/>
<feBlend mode="normal" in2="BackgroundImageFix" result="effect1_dropShadow_145_847"/>
<feColorMatrix in="SourceAlpha" type="matrix" values="0 0 0 0 0 0 0 0 0 0 0 0 0 0 0 0 0 0 127 0" result="hardAlpha"/>
<feMorphology radius="3" operator="erode" in="SourceAlpha" result="effect2_dropShadow_145_847"/>
<feOffset dy="10"/>
<feGaussianBlur stdDeviation="7.5"/>
<feComposite in2="hardAlpha" operator="out"/>
<feColorMatrix type="matrix" values="0 0 0 0 0.169333 0 0 0 0 0.498049 0 0 0 0 1 0 0 0 0.3 0"/>
<feBlend mode="normal" in2="effect1_dropShadow_145_847" result="effect2_dropShadow_145_847"/>
<feBlend mode="normal" in="SourceGraphic" in2="effect2_dropShadow_145_847" result="shape"/>
</filter>
<linearGradient id="paint0_linear_145_847" x1="12" y1="2" x2="76" y2="66" gradientUnits="userSpaceOnUse">
<stop stop-color="#155DFC"/>
<stop offset="1" stop-color="#00A6F4"/>
</linearGradient>
</defs>
</svg>
