<svg xmlns="http://www.w3.org/2000/svg" width="40" height="40" fill="none" viewBox="0 0 40 40">
  <path fill="#2F6BFF" d="M0 10C0 4.477 4.477 0 10 0h20c5.523 0 10 4.477 10 10v20c0 5.523-4.477 10-10 10H10C4.477 40 0 35.523 0 30V10Z"/>
  <path stroke="#fff" stroke-linecap="round" stroke-linejoin="round" stroke-width="1.667" d="M23.333 27.5v-1.667A3.333 3.333 0 0 0 20 22.5h-5a3.333 3.333 0 0 0-3.333 3.333V27.5m11.666-14.894a3.334 3.334 0 0 1 0 6.454m5 8.44v-1.667a3.333 3.333 0 0 0-2.5-3.225M17.5 19.167a3.333 3.333 0 1 0 0-6.667 3.333 3.333 0 0 0 0 6.667Z"/>
</svg>
